<svg width="90" height="100" viewBox="0 0 90 100" fill="none" xmlns="http://www.w3.org/2000/svg">
<rect width="1.50457" height="1.50223" fill="#404852"/>
<rect x="8.49881" width="1.50457" height="1.50223" fill="#404852"/>
<rect x="18.5022" width="1.50457" height="1.50223" fill="#404852"/>
<rect x="28.4954" width="1.50457" height="1.50223" fill="#404852"/>
<rect x="48.492" width="1.50457" height="1.50223" fill="#404852"/>
<rect x="58.4954" width="1.50457" height="1.50223" fill="#404852"/>
<rect x="68.4988" width="1.50457" height="1.50223" fill="#404852"/>
<rect x="78.492" width="1.50457" height="1.50223" fill="#404852"/>
<rect x="88.4954" width="1.50457" height="1.50223" fill="#404852"/>
<rect x="38.4988" width="1.50457" height="1.50223" fill="#404852"/>
<rect y="8.49573" width="1.50457" height="1.50223" fill="#404852"/>
<rect x="8.49881" y="8.49573" width="1.50457" height="1.50223" fill="#404852"/>
<rect x="18.5022" y="8.49573" width="1.50457" height="1.50223" fill="#404852"/>
<rect x="28.4954" y="8.49573" width="1.50457" height="1.50223" fill="#404852"/>
<rect x="48.492" y="8.49573" width="1.50457" height="1.50223" fill="#404852"/>
<rect x="58.4954" y="8.49573" width="1.50457" height="1.50223" fill="#404852"/>
<rect x="68.4988" y="8.49573" width="1.50457" height="1.50223" fill="#404852"/>
<rect x="78.492" y="8.49573" width="1.50457" height="1.50223" fill="#404852"/>
<rect x="88.4954" y="8.49573" width="1.50457" height="1.50223" fill="#404852"/>
<rect x="38.4988" y="8.49573" width="1.50457" height="1.50223" fill="#404852"/>
<rect y="18.5038" width="1.50457" height="1.50223" fill="#404852"/>
<rect x="8.49881" y="18.5038" width="1.50457" height="1.50223" fill="#404852"/>
<rect x="18.5022" y="18.5038" width="1.50457" height="1.50223" fill="#404852"/>
<rect x="28.4954" y="18.5038" width="1.50457" height="1.50223" fill="#404852"/>
<rect x="48.492" y="18.5038" width="1.50457" height="1.50223" fill="#404852"/>
<rect x="58.4954" y="18.5038" width="1.50457" height="1.50223" fill="#404852"/>
<rect x="68.4988" y="18.5038" width="1.50457" height="1.50223" fill="#404852"/>
<rect x="78.492" y="18.5038" width="1.50457" height="1.50223" fill="#404852"/>
<rect x="88.4954" y="18.5038" width="1.50457" height="1.50223" fill="#404852"/>
<rect x="38.4988" y="18.5038" width="1.50457" height="1.50223" fill="#404852"/>
<rect y="28.5018" width="1.50457" height="1.50223" fill="#404852"/>
<rect x="8.49881" y="28.5018" width="1.50457" height="1.50223" fill="#404852"/>
<rect x="18.5022" y="28.5018" width="1.50457" height="1.50223" fill="#404852"/>
<rect x="28.4954" y="28.5018" width="1.50457" height="1.50223" fill="#404852"/>
<rect x="48.492" y="28.5018" width="1.50457" height="1.50223" fill="#404852"/>
<rect x="58.4954" y="28.5018" width="1.50457" height="1.50223" fill="#404852"/>
<rect x="68.4988" y="28.5018" width="1.50457" height="1.50223" fill="#404852"/>
<rect x="78.492" y="28.5018" width="1.50457" height="1.50223" fill="#404852"/>
<rect x="88.4954" y="28.5018" width="1.50457" height="1.50223" fill="#404852"/>
<rect x="38.4988" y="28.5018" width="1.50457" height="1.50223" fill="#404852"/>
<rect y="38.4998" width="1.50457" height="1.50223" fill="#404852"/>
<rect x="8.49881" y="38.4998" width="1.50457" height="1.50223" fill="#404852"/>
<rect x="18.5022" y="38.4998" width="1.50457" height="1.50223" fill="#404852"/>
<rect x="28.4954" y="38.4998" width="1.50457" height="1.50223" fill="#404852"/>
<rect x="48.492" y="38.4998" width="1.50457" height="1.50223" fill="#404852"/>
<rect x="58.4954" y="38.4998" width="1.50457" height="1.50223" fill="#404852"/>
<rect x="68.4988" y="38.4998" width="1.50457" height="1.50223" fill="#404852"/>
<rect x="78.492" y="38.4998" width="1.50457" height="1.50223" fill="#404852"/>
<rect x="88.4954" y="38.4998" width="1.50457" height="1.50223" fill="#404852"/>
<rect x="38.4988" y="38.4998" width="1.50457" height="1.50223" fill="#404852"/>
<rect y="48.4978" width="1.50457" height="1.50223" fill="#404852"/>
<rect x="8.49881" y="48.4978" width="1.50457" height="1.50223" fill="#404852"/>
<rect x="18.5022" y="48.4978" width="1.50457" height="1.50223" fill="#404852"/>
<rect x="28.4954" y="48.4978" width="1.50457" height="1.50223" fill="#404852"/>
<rect x="48.492" y="48.4978" width="1.50457" height="1.50223" fill="#404852"/>
<rect x="58.4954" y="48.4978" width="1.50457" height="1.50223" fill="#404852"/>
<rect x="68.4988" y="48.4978" width="1.50457" height="1.50223" fill="#404852"/>
<rect x="78.492" y="48.4978" width="1.50457" height="1.50223" fill="#404852"/>
<rect x="88.4954" y="48.4978" width="1.50457" height="1.50223" fill="#404852"/>
<rect x="38.4988" y="48.4978" width="1.50457" height="1.50223" fill="#404852"/>
<rect y="58.5059" width="1.50457" height="1.50223" fill="#404852"/>
<rect x="8.49881" y="58.5059" width="1.50457" height="1.50223" fill="#404852"/>
<rect x="18.5022" y="58.5059" width="1.50457" height="1.50223" fill="#404852"/>
<rect x="28.4954" y="58.5059" width="1.50457" height="1.50223" fill="#404852"/>
<rect x="48.492" y="58.5059" width="1.50457" height="1.50223" fill="#404852"/>
<rect x="58.4954" y="58.5059" width="1.50457" height="1.50223" fill="#404852"/>
<rect x="68.4988" y="58.5059" width="1.50457" height="1.50223" fill="#404852"/>
<rect x="78.492" y="58.5059" width="1.50457" height="1.50223" fill="#404852"/>
<rect x="88.4954" y="58.5059" width="1.50457" height="1.50223" fill="#404852"/>
<rect x="38.4988" y="58.5059" width="1.50457" height="1.50223" fill="#404852"/>
<rect y="68.5038" width="1.50457" height="1.50223" fill="#404852"/>
<rect x="8.49881" y="68.5038" width="1.50457" height="1.50223" fill="#404852"/>
<rect x="18.5022" y="68.5038" width="1.50457" height="1.50223" fill="#404852"/>
<rect x="28.4954" y="68.5038" width="1.50457" height="1.50223" fill="#404852"/>
<rect x="48.492" y="68.5038" width="1.50457" height="1.50223" fill="#404852"/>
<rect x="58.4954" y="68.5038" width="1.50457" height="1.50223" fill="#404852"/>
<rect x="68.4988" y="68.5038" width="1.50457" height="1.50223" fill="#404852"/>
<rect x="78.492" y="68.5038" width="1.50457" height="1.50223" fill="#404852"/>
<rect x="88.4954" y="68.5038" width="1.50457" height="1.50223" fill="#404852"/>
<rect x="38.4988" y="68.5038" width="1.50457" height="1.50223" fill="#404852"/>
<rect y="78.5018" width="1.50457" height="1.50223" fill="#404852"/>
<rect x="8.49881" y="78.5018" width="1.50457" height="1.50223" fill="#404852"/>
<rect x="18.5022" y="78.5018" width="1.50457" height="1.50223" fill="#404852"/>
<rect x="28.4954" y="78.5018" width="1.50457" height="1.50223" fill="#404852"/>
<rect x="48.492" y="78.5018" width="1.50457" height="1.50223" fill="#404852"/>
<rect x="58.4954" y="78.5018" width="1.50457" height="1.50223" fill="#404852"/>
<rect x="68.4988" y="78.5018" width="1.50457" height="1.50223" fill="#404852"/>
<rect x="78.492" y="78.5018" width="1.50457" height="1.50223" fill="#404852"/>
<rect x="88.4954" y="78.5018" width="1.50457" height="1.50223" fill="#404852"/>
<rect x="38.4988" y="78.5018" width="1.50457" height="1.50223" fill="#404852"/>
<rect y="88.4998" width="1.50457" height="1.50223" fill="#404852"/>
<rect x="8.49881" y="88.4998" width="1.50457" height="1.50223" fill="#404852"/>
<rect x="18.5022" y="88.4998" width="1.50457" height="1.50223" fill="#404852"/>
<rect x="28.4954" y="88.4998" width="1.50457" height="1.50223" fill="#404852"/>
<rect x="48.492" y="88.4998" width="1.50457" height="1.50223" fill="#404852"/>
<rect x="58.4954" y="88.4998" width="1.50457" height="1.50223" fill="#404852"/>
<rect x="68.4988" y="88.4998" width="1.50457" height="1.50223" fill="#404852"/>
<rect x="78.492" y="88.4998" width="1.50457" height="1.50223" fill="#404852"/>
<rect x="88.4954" y="88.4998" width="1.50457" height="1.50223" fill="#404852"/>
<rect x="38.4988" y="88.4998" width="1.50457" height="1.50223" fill="#404852"/>
<rect y="98.4978" width="1.50457" height="1.50223" fill="#404852"/>
<rect x="8.49881" y="98.4978" width="1.50457" height="1.50223" fill="#404852"/>
<rect x="18.5022" y="98.4978" width="1.50457" height="1.50223" fill="#404852"/>
<rect x="28.4954" y="98.4978" width="1.50457" height="1.50223" fill="#404852"/>
<rect x="48.492" y="98.4978" width="1.50457" height="1.50223" fill="#404852"/>
<rect x="58.4954" y="98.4978" width="1.50457" height="1.50223" fill="#404852"/>
<rect x="68.4988" y="98.4978" width="1.50457" height="1.50223" fill="#404852"/>
<rect x="78.492" y="98.4978" width="1.50457" height="1.50223" fill="#404852"/>
<rect x="88.4954" y="98.4978" width="1.50457" height="1.50223" fill="#404852"/>
<rect x="38.4988" y="98.4978" width="1.50457" height="1.50223" fill="#404852"/>
</svg>
